<svg xmlns="http://www.w3.org/2000/svg" xmlns:xlink="http://www.w3.org/1999/xlink" version="1.1" x="0px" y="0px" viewBox="0 0 200 100" xlink:href="www.google.com" style="enable-background:new 0 0 200 100;" xml:space="preserve">

<style type="text/css">
	.st0{fill:#CBDB29;;}
	.st1{fill:#636363;}
	.st2{ fill:#00B3E3;fill-opacity:1;stroke:#00B3E3;stroke-width:1; stroke-linecap:round; stroke-miterlimit:10;}

:hover .fademein
{
fill-opacity:0;
	animation: reveal .4s cubic-bezier(.89,0,.91,.14) .5s forwards ;
	
}


:hover 	#n{

	stroke-dasharray: 300;
  	stroke-dashoffset: 300;
  	animation: dash .3s linear forwards ;


	}
:hover 	#i{

	stroke-dasharray: 300;
  	stroke-dashoffset: 300;
  	animation: dash .3s linear .2s forwards ;


	}
:hover 		#s{

	stroke-dasharray: 300;
  	stroke-dashoffset: 300;
  	animation: dash .3s linear .3s forwards ;


	}
:hover 		#u{

	stroke-dasharray: 300;
  	stroke-dashoffset: 300;
  	animation: dash .3s linear .4s forwards ;


	}
:hover 		#m{

	stroke-dasharray: 300;
  	stroke-dashoffset: 300;
  	animation: dash .2s linear .6s forwards ;


	}


	@keyframes dash {
  from {
  	  	opacity:1;

    stroke-dashoffset: 300;
  } 
  to {
    stroke-dashoffset: 0;
      	  	opacity:1;

  }
}
	@keyframes reveal {
  from {
  	  	fill-opacity:0;

  } 
  to {
      	  	fill-opacity:1;

  }
}

#box{
	
	fill: transparent;

}

</style>

<a xlink:href="../../index.html" target="_top">
<rect id="box" x="0" y="0" width="200" height="100"/>

<g id="descriptors" class="fademein">

<g id="registered">
		<path class="st1" d="M187.7,23.2c0,1.7-1.4,3.1-3.2,3.1c-1.8,0-3.2-1.4-3.2-3.1c0-1.7,1.4-3.1,3.2-3.1    C186.3,20.1,187.7,21.5,187.7,23.2 M182.1,23.2c0,1.4,1,2.5,2.4,2.5c1.4,0,2.4-1.1,2.4-2.4c0-1.4-1-2.5-2.4-2.5    C183.1,20.8,182.1,21.9,182.1,23.2 M184,24.8h-0.7v-3.1c0.3-0.1,0.7-0.1,1.2-0.1c0.6,0,0.8,0.1,1.1,0.2c0.2,0.1,0.3,0.4,0.3,0.7    c0,0.3-0.3,0.6-0.6,0.7v0c0.3,0.1,0.5,0.3,0.6,0.8c0.1,0.5,0.2,0.7,0.2,0.8h-0.8c-0.1-0.1-0.2-0.4-0.2-0.8    c-0.1-0.3-0.2-0.5-0.6-0.5H184V24.8z M184,23.1h0.3c0.4,0,0.7-0.1,0.7-0.5c0-0.3-0.2-0.5-0.7-0.5c-0.2,0-0.3,0-0.4,0V23.1z"/>
	</g>
</g>
<g id="nisum">
	<g id="m">
		<path class="st2 fademein" d="M181.2,65V41.3c0-5.9-2.5-8.9-7.6-8.9c-1.6,0-3.1,0.5-4.5,1.5c-1.4,1-2.3,2.1-2.9,3.4V65h-6.6V38.4    c0-1.8-0.7-3.3-2.1-4.4c-1.4-1.1-3.2-1.6-5.5-1.6c-1.3,0-2.7,0.5-4.2,1.5c-1.5,1-2.6,2.2-3.2,3.4V65H138V27.5h4.3l2.2,4.3    c2.5-3.4,5.7-5,9.6-5c5.3,0,9.1,1.7,11.2,5c0.7-1.4,2.1-2.6,4.1-3.6c2-1,4.1-1.4,6.2-1.4c3.9,0,6.8,1.1,8.9,3.4    c2.1,2.3,3.2,5.5,3.2,9.7V65H181.2z"/>
	</g>
	<g id="u">
		<path class="st2 fademein" d="M105.4,27.5v23.9c0,5.8,2.5,8.7,7.5,8.7c2.2,0,4.2-0.6,6-1.9c1.8-1.3,3-2.7,3.6-4.4V27.5h6.6V65h-6.6v-5.2    c-0.7,1.5-2.2,2.8-4.5,4c-2.2,1.2-4.4,1.8-6.6,1.8c-4.1,0-7.2-1.2-9.4-3.5c-2.2-2.4-3.3-5.7-3.3-10V27.5H105.4z"/>
	</g>
	<g id="s">
		<path class="st2 fademein" d="M67.8,62.8l2.3-6.3c3.7,2.4,6.7,3.6,8.9,3.6c4.1,0,6.1-1.7,6.1-5.2c0-2.5-2-4.6-5.9-6.4    c-3-1.4-5.1-2.5-6.1-3.2c-1.1-0.7-2-1.5-2.7-2.5C69.6,42,69,41,68.6,40c-0.4-1-0.6-2.2-0.6-3.3c0-3.1,1.1-5.5,3.3-7.2    c2.2-1.7,5.1-2.6,8.7-2.6c2.7,0,6.1,0.9,10.3,2.6l-1.9,6.2c-2.6-2.1-5.3-3.2-7.9-3.2c-1.6,0-2.9,0.4-4,1.1    c-1.1,0.7-1.6,1.7-1.6,2.8c0,2.4,1.4,4.2,4.1,5.5l4.7,2.2c2.9,1.3,5,2.8,6.3,4.6c1.3,1.7,2,3.8,2,6.4c0,3.4-1.2,6-3.5,7.9    c-2.3,1.9-5.6,2.9-9.7,2.9C74.9,65.7,71.2,64.7,67.8,62.8"/>
	</g>
	<g id="i">
		<path class="st2 fademein" d="M53.1,65V33.1H48v-5.6h11.7V65H53.1z M56.7,13.3c1.1,0,2.1,0.4,2.9,1.2c0.8,0.8,1.2,1.8,1.2,2.9    c0,1.1-0.4,2.1-1.2,2.9c-0.8,0.8-1.8,1.2-2.9,1.2c-1.1,0-2.1-0.4-2.9-1.2c-0.8-0.8-1.2-1.8-1.2-2.9c0-1.1,0.4-2.1,1.2-2.9    C54.6,13.7,55.6,13.3,56.7,13.3"/>
	</g>
	<g id="n">
		<path class="st2 fademein" d="M33.9,65V43.2c0-4-0.6-6.8-1.8-8.4c-1.2-1.6-3.2-2.4-6-2.4c-1.5,0-3.1,0.5-4.7,1.4c-1.6,0.9-2.9,2-3.8,3.4V65    h-6.6V27.5h4.5l2.1,4.8c2.2-3.7,5.7-5.5,10.7-5.5c8.2,0,12.3,5,12.3,15V65H33.9z"/>
	</g>
</g>
</a>

</svg>